<svg xmlns="http://www.w3.org/2000/svg" viewBox="0 0 703.67 414.5"><defs><style>.cls-1,.cls-4{fill:none;stroke-miterlimit:10;}.cls-1{stroke:#231f20;}.cls-2{fill:#fff;}.cls-3{fill:#ed1c24;}.cls-4{stroke:#fff;stroke-width:5px;}</style></defs><title>shannon</title><g id="Layer_2" data-name="Layer 2"><g id="Layer_1-2" data-name="Layer 1"><path class="cls-1" d="M332.46,410.87a10.34,10.34,0,0,1-5-1.38,64.19,64.19,0,0,1-15.61-12.29,206.25,206.25,0,0,1-22.55-29.48c-3.72-5.72-7.2-11.59-10.53-17.55-1.27-2.27-2.68-4.52-3.71-6.84-.82-1.85-1.38-3.91-2.29-5.79a27.55,27.55,0,0,0-2.35-4.59c-3.08-4.08-4.4-8.94-6.36-13.52-.67-1.58-1-2.9.45-4.52,1.29-1.39,1.52-3.6,2.15-5.45,1.94-5.68,3.66-11.45,5.38-17.21,2.08-7,3.8-14,5.38-21.12q1.83-8.22,3.1-16.53c.67-4.41,1.13-8.85,1.55-13.3A190.38,190.38,0,0,0,283,216.8c-.16-4.62-.44-9.24-.92-13.86-.38-3.61-.79-7.21-1.18-10.82-.33-3.09-.83-6.18-1.42-9.23-.73-3.81-1.67-7.57-2.46-11.37-.89-4.31-2.08-8.53-3.16-12.79-1.56-6.16-3.48-12.22-5.39-18.27-1.08-3.44-2.35-6.81-3.54-10.21-.12-.34-.2-.77-.45-1-1.85-1.41-1-3.1-.4-4.62,1.63-4,3.05-8.15,5.24-11.84,1.67-2.82,3-5.77,4.69-8.58.87-1.49.74-2.62-.3-4.14-2-2.86-3.48-6-5.24-9a2.81,2.81,0,0,1-.32-2c1.28-7.67-.73-14.74-4.12-21.48a243,243,0,0,0-20.37-33.24A228.3,228.3,0,0,0,219.3,6c-1.67-1.65-3.44-3.19-5.14-4.81-.47-.44-.86-1-1.6-.61s-.63,1.26-.5,1.85c.89,4,1.85,8.06,2.81,12.08A205.2,205.2,0,0,0,226.28,48.1a224.14,224.14,0,0,0,18.09,34.1,32.35,32.35,0,0,0,11.17,11,2.71,2.71,0,0,0,.71.37A8.7,8.7,0,0,1,262,98.53c2.37,4.56,4.94,9,7.43,13.51"/><path class="cls-1" d="M403.34,112c2.61-3.85,4.6-8.06,6.92-12.08.74-1.28,1.41-2.61,2.15-3.9a2.46,2.46,0,0,1,1.4-1.27c5.2-1.72,9.12-5.19,12.43-9.39,3.94-5,6.95-10.57,10-16.14q4.38-8,8.19-16.33,3.65-8,6.71-16.18a218.36,218.36,0,0,0,7.64-24.86c.75-3.07,1.43-6.15,2.13-9.23a6,6,0,0,0,0-.71c.06-.57,0-1.17-.55-1.39s-1,.06-1.42.48c-4.47,4-8.69,8.25-12.76,12.64A225.87,225.87,0,0,0,425,40.31c-4.6,6.77-8.85,13.77-12.82,20.94A93.78,93.78,0,0,0,406.55,73a28.51,28.51,0,0,0-1.76,15.79,3.13,3.13,0,0,1-.37,2.32c-1.68,2.95-3.31,5.92-5,8.86-.27.47-.48,1.11-1.23,1.07"/><path class="cls-1" d="M263.36,128.37c-1.72,2.4-2.19,5.31-3.18,8-2.05,5.53-3.72,11.19-5.33,16.87-2.51,8.84-4.73,17.76-6.45,26.8-1.3,6.84-2.22,13.72-3.11,20.61-.48,3.7-.53,7.45-.75,11.18-.25,4.14-.47,8.28-.35,12.43a251.25,251.25,0,0,0,1.95,26.1,246.76,246.76,0,0,0,5.38,28.4,293.47,293.47,0,0,0,9.5,31.45c.74,2,1,4.09,2.52,5.67"/><path class="cls-1" d="M409.38,315.87c-1.93-1-2-3.15-2.59-4.82-2.73-8.28-5.52-16.56-7.7-25-1.65-6.41-3.32-12.82-4.47-19.35-.76-4.33-1.88-8.61-2.41-13-.58-4.72-1.08-9.46-1.56-14.19-.88-8.7-.65-17.41-.57-26.11,0-4,.51-8.06.91-12.08.34-3.44.84-6.85,1.19-10.29a75.08,75.08,0,0,1,1.43-8.87c.85-3.73,1.54-7.48,2.39-11.21.93-4.09,1.86-8.18,3-12.22,2.56-9.47,5.52-18.83,8.8-28.08a15.09,15.09,0,0,1,1.49-2.34,3,3,0,0,1,1.25,1.63q4.91,13.41,8.69,27.17c2,7.34,3.85,14.73,5.27,22.21,1.33,7,2.4,14,3.09,21.12.62,6.44,1,12.88,1.07,19.36a229.42,229.42,0,0,1-1.06,23.62,256.48,256.48,0,0,1-7,38.7,292.16,292.16,0,0,1-10,31.93c-1.1,2.9-1.54,6-3,8.77s-2.13,6.28-3.92,8.94a69.44,69.44,0,0,0-4,7c-.68,1.3-1.61,2.48-1.43,4.09.09.83-.74,1.27-1.1,1.93-3.87,7.1-7.84,14.16-12.21,21a229.21,229.21,0,0,1-18.46,25.4,97.36,97.36,0,0,1-11.93,12.23,54.21,54.21,0,0,1-10.3,6.74c-1.1.55-2.26,1.12-3.55.39-.2-.11-.36.09-.35.34"/><path class="cls-1" d="M332.46,33.56a3.54,3.54,0,0,1-1.16,2.91c-1.32,1.54-1.69,3.69-2.38,5.62a215.49,215.49,0,0,0-6.36,22.2c-1,4-1.5,8.15-2.17,12.24-.64,3.9-1.33,7.8-1.75,11.72-.51,4.78-.77,9.58-1.1,14.38a187,187,0,0,0-.31,19.53c.19,5.27.43,10.55.94,15.81.36,3.79.7,7.59,1.2,11.35.63,4.7,1.45,9.38,2.37,14q2,10.34,5,20.4c1.13,3.76,2.4,7.47,3.87,11.11a3.16,3.16,0,0,0,1.63,2"/><path class="cls-1" d="M339.92,246.45a20.92,20.92,0,0,0-6.21-.18c-1.19.06-2.41,1.71-3,3.2A148.87,148.87,0,0,0,324,270.6c-1.23,4.87-2.27,9.8-3.19,14.74-.66,3.52-.95,7.1-1.46,10.65a228.66,228.66,0,0,0-2.07,38.35c.12,5.21.39,10.43.94,15.63.39,3.72.67,7.47,1.18,11.17.56,4,1.27,8.07,2,12.1.93,5.13,2.1,10.19,3.33,15.24.92,3.78,2.18,7.48,3.35,11.19a65.13,65.13,0,0,0,2.61,6.86,3.3,3.3,0,0,0,1.64,2"/><path class="cls-1" d="M409.56,128.37c-.56-5-3-9.27-5-13.64-1.83-3.86-4.53-7.34-5.92-11.41-2.17-6.33-5.9-11.82-9.2-17.51a235.42,235.42,0,0,0-13.21-20.13c-6.58-9.08-13.54-17.81-22.06-25.18a55.07,55.07,0,0,0-8.53-6c-1.53-.88-3.19-1.69-5.1-.56a2.13,2.13,0,0,0,1,2.65,1.83,1.83,0,0,1,.87,1.09,190.72,190.72,0,0,1,7.12,23.61c1.3,5.58,2.36,11.2,3.23,16.86.73,4.78,1.22,9.58,1.78,14.38,1.31,11.17,1.09,22.37,1,33.56-.06,4.49-.51,9-.92,13.5s-.9,8.89-1.55,13.3c-.85,5.77-1.88,11.53-3.19,17.22a175.22,175.22,0,0,1-7.07,23.62c-.39,1-.64,2.18-1.95,2.49"/><path class="cls-1" d="M340.1,198.15c1.36,1.89,3.64,2.67,5.19,4.41a26.1,26.1,0,0,1,6,12.81,35.22,35.22,0,0,1,.33,11.72,27.68,27.68,0,0,1-6.6,15.07,14.32,14.32,0,0,1-3.18,2.32c-2.24,1.4-2.33,2.17-.35,3.92a6.61,6.61,0,0,1,1.57,3,174.26,174.26,0,0,1,5.52,17.93c1.13,4.77,2.2,9.54,3.09,14.37.76,4.14,1.47,8.29,2,12.45s.8,8.28,1.2,12.41c.87,9,.62,18,.61,27,0,5.34-.49,10.66-1,16q-.61,6.68-1.52,13.31c-.64,4.7-1.44,9.4-2.49,14a206.41,206.41,0,0,1-5.66,20.78,45.06,45.06,0,0,1-2.67,6.92c-.3.55-.57,1.24-1.41,1.25"/><path class="cls-1" d="M332.46,35.87a5,5,0,0,1,.55,2.49q0,77.95,0,155.89c0,1.32-1.16,2.51-.29,3.94.22.36-.49.93-1,1.21-6,3.28-8.61,8.83-9.91,15.1-1.64,8-1,15.74,2.81,23.07a16.57,16.57,0,0,0,5.83,6.61c.89.56,2.1,1,2.33,2.27"/><path class="cls-1" d="M332.46,247.87a5,5,0,0,1,.55,2.49q0,77.77,0,155.54c0,1.52-.91,2.9-.55,4.44"/><path class="cls-1" d="M340.46,36a5.62,5.62,0,0,0-.54,2.66q0,77.41,0,154.83a5.18,5.18,0,0,0,.49,2.51,1.47,1.47,0,0,1-1.2,2.09c-2.07.06-4.14,0-6.22,0"/><path class="cls-1" d="M340.46,248a5.62,5.62,0,0,0-.54,2.66q0,77.24,0,154.47c0,1.73,1,3.38.36,5.15"/><path class="cls-1" d="M269.31,332.39c-3.18,5.71-6.49,11.35-9.61,17.08S253.16,361.11,250,367c-3.51,6.54-7.35,12.9-11,19.38-3.17,5.7-6.23,11.46-9.6,17-.94,1.56-1.76,3.21-2.68,4.78a1.58,1.58,0,0,0,.72,2.49c1.72.95,3.49,1.81,5.13,2.87,1.07.69,1.5.63,2.21-.53.91-1.47,1.72-3,2.59-4.48,3.23-5.54,6.45-11.1,9.59-16.69,2.43-4.32,4.8-8.67,7.27-13,3.77-6.57,7.37-13.24,11-19.87,2.49-4.5,5-9,7.48-13.48a4.94,4.94,0,0,1,1.93-2.32"/><path class="cls-1" d="M403.7,332.56c3.2,5.68,6.41,11.35,9.59,17q3.42,6.15,6.9,12.27c3.81,6.74,7.53,13.52,11.34,20.26,2.43,4.28,4.78,8.62,7.18,12.92s4.85,8.53,7.27,12.79c.87,1.54.83,1.84-.72,2.83s-3.19,1.91-4.79,2.85a1.68,1.68,0,0,1-2.67-.71c-1.22-2.26-2.45-4.52-3.73-6.75-3.12-5.45-6.33-10.86-9.39-16.35-2.42-4.33-4.85-8.64-7.27-13-3.77-6.76-7.53-13.52-11.34-20.26-2-3.57-4.06-7.14-5.92-10.8a7.08,7.08,0,0,0-1.78-2.48"/><path class="cls-1" d="M332.46,33c-.92.91-2.11.09-3.24.63a45,45,0,0,0-9.36,6,103.16,103.16,0,0,0-13,13,233,233,0,0,0-18.34,25.18c-3.64,5.72-7,11.57-10.45,17.42-1.13,1.95-1.78,4.17-3.38,5.85"/><rect x="3.11" y="187.59" width="698.67" height="69.07" rx="12" ry="12"/><path class="cls-2" d="M71.91,217.88c13.08,0,15.06,6.06,15.06,14S84.87,245.53,72,245.53H21.81v-11.1h50c3.6,0,3.66-2.34,3.72-5.28H34.11c-12.6,0-15.12-5.76-15.12-13.8,0-8.58,1.32-14.16,15.12-14.16H84v11.28H31.11c0,2.34,0,5.4,3,5.4Z"/><path class="cls-2" d="M104.61,201.14v16.38h40.14V201.14h11.58v44.4H144.57V228.79h-39.9v16.74H93v-44.4Z"/><path class="cls-2" d="M160.89,210.92c0-7.74,5.46-10.38,11.22-10.38,3.3,0,6.24,1.38,9.12,4.2l41.46,40.8H205.11l-11.34-11.4H172.11v11.4H160.89V210.92Zm11.22,13.68h12.12l-12.12-12.18Z"/><path class="cls-2" d="M225.75,211c0-5.88,5.4-10.5,11.22-10.5,3.3,0,6.24,1.38,9.12,4.2l30.18,29V201.14h11.28v32.64c0,7.08-5.22,12.24-11.28,12.24-3.3,0-5.46-1.26-12.24-7.2L237,212.42v33.12H225.75Z"/><path class="cls-2" d="M293.37,211c0-5.88,5.4-10.5,11.22-10.5,3.3,0,6.24,1.38,9.12,4.2l30.18,29V201.14h11.28v32.64c0,7.08-5.22,12.24-11.28,12.24-3.3,0-5.46-1.26-12.24-7.2l-27.06-26.4v33.12H293.37Z"/><path class="cls-2" d="M423.39,232.09c0,8.58-5.58,13.44-14.1,13.44H375c-8.28,0-14.16-5.16-14.16-13.44V213.92c.66-7.2,6.12-12.78,14.22-12.78h34.2c9.3,0,14.1,5.82,14.1,14.1Zm-11.58-15.84c0-1.86-.06-3.72-2.52-3.72H375c-2.7,0-2.7,1.44-2.7,2.88v14.76c0,2.16.3,3.72,2.64,3.72h34.2c2.64,0,2.64-1.5,2.64-3.12Z"/><path class="cls-2" d="M429,211c0-5.88,5.4-10.5,11.22-10.5,3.3,0,6.24,1.38,9.12,4.2l30.18,29V201.14h11.28v32.64c0,7.08-5.22,12.24-11.28,12.24-3.3,0-5.46-1.26-12.24-7.2l-27.06-26.4v33.12H429Z"/><path class="cls-2" d="M496.41,229.27V217h33.42v12.3Z"/><path class="cls-3" d="M598.1,201.14v11.4H550.17c-2.4,0-2.7,1.8-2.7,3.72v1.44H598.1v11.46H547.53v16.38H535.95V215.36a14,14,0,0,1,14.22-14.16Z"/><path class="cls-3" d="M616.95,201.14v44.4H604.59v-44.4Z"/><path class="cls-3" d="M622.64,201.2h62.94v11.34h-25.8v33H648.62V212.66h-26Z"/><rect class="cls-4" x="2.5" y="187.74" width="698.67" height="69.07" rx="12" ry="12"/></g></g></svg>